PathFileType	4	(X/Y/Z)	C:/Users/dbak576/Desktop/Duncan Bakke Modelling Files/H28s1/Static_H28s1.trc	
DataRate	CameraRate	NumFrames	NumMarkers	Units	OrigDataRate	OrigDataStartFrame	OrigNumFrames	
200.00	200.00	4	61	mm	200.00	441	187	
Frame#	Time	LFHD			RFHD			LBHD			RBHD			C7			T10			CLAV			STRN			RBack			LASI			RASI			LPSI			RPSI			RACR1			RUA1			RElbow			RElbowM			RFA1			RWRR			RWRU			RCAR			LACR1			LUA1			LElbow			LElbowM			LFA1			LWRR			LWRU			LCAR			RTH1			RTH3			RTH2			RTH4			RLFC			RMFC			RTB1			RTB3			RTB2			RTB4			RLMAL			RMMAL			RCAL			RMT1			RMT5			RToe			LTH1			LTH3			LTH2			LTH4			LLFC			LMFC			LTB1			LTB3			LTB2			LTB4			LLMAL			LMMAL			LCAL			LMT1			LMT5			LToe			
		X1	Y1	Z1	X2	Y2	Z2	X3	Y3	Z3	X4	Y4	Z4	X5	Y5	Z5	X6	Y6	Z6	X7	Y7	Z7	X8	Y8	Z8	X9	Y9	Z9	X10	Y10	Z10	X11	Y11	Z11	X12	Y12	Z12	X13	Y13	Z13	X14	Y14	Z14	X15	Y15	Z15	X16	Y16	Z16	X17	Y17	Z17	X18	Y18	Z18	X19	Y19	Z19	X20	Y20	Z20	X21	Y21	Z21	X22	Y22	Z22	X23	Y23	Z23	X24	Y24	Z24	X25	Y25	Z25	X26	Y26	Z26	X27	Y27	Z27	X28	Y28	Z28	X29	Y29	Z29	X30	Y30	Z30	X31	Y31	Z31	X32	Y32	Z32	X33	Y33	Z33	X34	Y34	Z34	X35	Y35	Z35	X36	Y36	Z36	X37	Y37	Z37	X38	Y38	Z38	X39	Y39	Z39	X40	Y40	Z40	X41	Y41	Z41	X42	Y42	Z42	X43	Y43	Z43	X44	Y44	Z44	X45	Y45	Z45	X46	Y46	Z46	X47	Y47	Z47	X48	Y48	Z48	X49	Y49	Z49	X50	Y50	Z50	X51	Y51	Z51	X52	Y52	Z52	X53	Y53	Z53	X54	Y54	Z54	X55	Y55	Z55	X56	Y56	Z56	X57	Y57	Z57	X58	Y58	Z58	X59	Y59	Z59	X60	Y60	Z60	X61	Y61	Z61	

117	0.580	-9.18025	-325.74197	1446.42383	86.07806	-342.14578	1433.84607	-49.32935	-456.17291	1380.69702	81.53831	-477.45197	1371.23755	13.19783	-512.91071	1277.73804	24.23456	-577.57922	1072.43506	12.34382	-364.88141	1207.30737	11.36100	-312.82315	1106.93921	123.79492	-553.17725	1149.89612	-155.18857	-376.99548	830.52618	163.72949	-343.98004	832.52118	-25.78527	-624.55176	862.64386	76.36025	-608.40735	854.09198	157.77718	-476.41245	1261.61682	282.81235	-463.74704	1225.27588	400.29126	-431.34891	1197.68274	391.58664	-367.84235	1146.23645	512.70544	-408.85751	1244.16724	602.71326	-356.56021	1262.68323	613.44708	-385.76855	1197.85754	678.15570	-349.39331	1230.95630	-141.69995	-476.46051	1263.48474	-277.27020	-440.45428	1230.06665	-380.46579	-395.74359	1189.16833	-360.30716	-343.23282	1153.28699	-477.96732	-389.33472	1228.49902	-576.11261	-336.59500	1245.16199	-585.52509	-356.45032	1185.80847	-644.49701	-327.90732	1212.22937	221.23259	-426.67551	652.30347	191.36798	-444.81244	481.74698	188.98772	-379.69080	565.86456	209.09827	-437.22629	566.93829	174.46941	-481.28809	399.56223	34.07872	-457.32712	386.46692	140.37907	-429.94611	294.77878	143.41640	-442.52435	123.81129	189.06328	-478.73743	212.65485	141.46332	-440.00085	208.26860	180.83757	-492.14774	62.98860	99.89996	-473.83322	63.09695	135.57051	-545.39935	31.90640	124.89642	-374.75394	27.01255	217.48543	-407.18243	25.41240	162.41582	-321.26624	28.94341	-215.26074	-451.80914	673.34003	-192.67503	-461.47977	500.75500	-186.18533	-401.31226	588.98773	-209.62886	-454.73798	586.91809	-173.68764	-447.40060	405.92145	-32.14629	-448.96271	398.73193	-128.84224	-425.45938	298.64368	-152.27499	-447.19653	130.27473	-193.83838	-466.94064	224.39369	-139.43381	-439.41107	212.23677	-188.59666	-503.00845	64.05372	-111.71046	-474.60645	65.35104	-145.54324	-541.20898	41.23920	-140.50130	-374.31506	31.99752	-224.36412	-420.30002	21.50535	-172.04666	-320.71451	26.28631 
118	0.585	-9.22709	-325.70413	1446.44409	86.09392	-342.19821	1433.80835	-49.29816	-456.19647	1380.68372	81.55910	-477.48767	1371.27441	13.18160	-512.86566	1277.78284	24.26062	-577.60223	1072.44556	12.32545	-364.96393	1207.33301	11.63027	-312.91931	1106.94556	123.80251	-553.23187	1149.93079	-155.19322	-376.93600	830.55634	163.77051	-344.05841	832.56116	-25.90358	-624.71545	862.71735	76.28754	-608.62939	854.12543	157.79675	-476.43945	1261.58313	282.79495	-463.83377	1225.31909	400.19629	-431.34729	1197.61267	391.58615	-367.96994	1146.17810	512.67316	-408.84772	1244.14966	602.71655	-356.56018	1262.66858	613.38599	-385.66107	1197.79480	678.14307	-349.38852	1230.95264	-141.75705	-476.44901	1263.47144	-277.29379	-440.48590	1230.09216	-380.43997	-395.76364	1189.17786	-360.31192	-343.36078	1153.28430	-477.95688	-389.37372	1228.49719	-576.10052	-336.61081	1245.16553	-585.48578	-356.46387	1185.79016	-644.68976	-327.90256	1212.34583	221.17178	-426.71106	652.30725	191.39204	-445.06375	481.84738	189.00105	-379.74390	565.93195	209.12062	-437.09299	566.98029	174.49857	-481.27960	399.57715	34.15094	-457.10233	386.41443	140.33586	-429.91263	294.78119	143.43457	-442.52316	123.77322	189.12102	-478.78915	212.71379	141.46211	-440.00003	208.27966	180.92128	-492.18130	62.94395	99.90254	-473.82654	63.09664	135.65302	-545.20026	31.83249	124.88573	-374.99066	26.96714	217.04456	-407.14157	25.34400	162.54129	-321.28049	28.92339	-215.28319	-451.86572	673.33234	-192.67427	-461.56812	500.77988	-186.16945	-401.34750	588.98370	-209.68411	-454.82227	586.99243	-173.71281	-447.44278	405.91528	-32.10543	-448.98865	398.77661	-128.85173	-425.49057	298.65475	-152.27084	-447.19266	130.29041	-193.86247	-466.94940	224.43980	-139.45038	-439.44244	212.23944	-188.59599	-503.01273	64.05334	-111.74947	-474.59473	65.35896	-145.54720	-541.21246	41.26181	-140.47232	-374.33823	31.97566	-224.38072	-420.28778	21.52398	-172.05321	-320.70679	26.29519 
119	0.590	-9.27098	-325.67981	1446.45007	86.08540	-342.27338	1433.76147	-49.26292	-456.19818	1380.69507	81.56325	-477.52722	1371.31323	13.17511	-512.81708	1277.84326	24.28417	-577.62616	1072.45740	12.31768	-365.05057	1207.33496	11.83546	-313.05301	1106.97571	123.80737	-553.28754	1149.95654	-155.25623	-376.94601	830.61743	163.79211	-344.12653	832.59393	-26.03812	-624.86823	862.77588	76.19810	-608.80133	854.17786	157.81810	-476.45349	1261.55957	282.78226	-463.91379	1225.35779	400.13049	-431.36707	1197.56299	391.57004	-368.11292	1146.15381	512.66461	-408.81857	1244.13330	602.71155	-356.55670	1262.64551	613.32831	-385.52884	1197.72620	678.12073	-349.39096	1230.95935	-141.79663	-476.47427	1263.49670	-277.31375	-440.53934	1230.12634	-380.43741	-395.80667	1189.17444	-360.33228	-343.52509	1153.25989	-477.88293	-389.29639	1228.42480	-576.08319	-336.62509	1245.13074	-585.44867	-356.46710	1185.77478	-644.98468	-328.02258	1212.58142	221.12817	-426.74536	652.29810	191.46472	-445.32904	481.93753	188.98274	-379.79965	566.01971	209.14592	-436.95981	567.01587	174.51782	-481.28888	399.58508	34.20464	-456.89511	386.39792	140.29993	-429.87646	294.77606	143.42676	-442.51300	123.74117	189.18495	-478.84833	212.76421	141.46008	-440.00592	208.28905	180.99358	-492.20416	62.92142	99.90038	-473.82074	63.09650	135.76083	-545.01257	31.71990	125.11179	-375.25601	26.62938	216.97218	-407.12323	25.35391	162.66949	-321.29364	28.89965	-215.30728	-451.92441	673.32703	-192.69423	-461.67374	500.76434	-186.15475	-401.38141	588.98633	-209.76857	-454.91193	587.09241	-173.74286	-447.48352	405.92252	-32.10516	-449.01324	398.78094	-128.87520	-425.51376	298.65436	-152.28728	-447.16907	130.23837	-193.89301	-467.00522	224.46735	-139.46872	-439.47217	212.24040	-188.59325	-503.01260	64.04753	-111.83549	-474.55029	65.34079	-145.53023	-541.24408	41.26027	-140.45372	-374.36014	31.96219	-224.39006	-420.28510	21.52227	-172.05063	-320.71060	26.29325 
120	0.595	-9.30383	-325.70813	1446.44031	86.10542	-342.32648	1433.72156	-49.22243	-456.22159	1380.70642	81.54989	-477.55246	1371.34583	13.16313	-512.83075	1277.88879	24.30942	-577.66003	1072.46716	12.32612	-365.12607	1207.32153	11.97048	-313.18744	1107.01758	123.80709	-553.34222	1149.98303	-155.36833	-377.02951	830.70129	163.80396	-344.20074	832.65302	-26.16638	-624.98468	862.81909	76.13235	-608.83728	854.25861	157.84515	-476.46878	1261.54431	282.77029	-464.00787	1225.38293	400.07867	-431.39752	1197.50403	391.54236	-368.26810	1146.13684	512.67773	-408.76770	1244.09912	602.70715	-356.55368	1262.62073	613.30969	-385.47061	1197.69385	678.09253	-349.39694	1230.97925	-141.80644	-476.51294	1263.54822	-277.32684	-440.59167	1230.17017	-380.43915	-395.87418	1189.18787	-360.37122	-343.72046	1153.23999	-477.80109	-389.23880	1228.37354	-576.07825	-336.63940	1245.12927	-585.40851	-356.46463	1185.78198	-645.30133	-328.10068	1212.79529	221.10841	-426.77695	652.26843	191.54704	-445.59433	481.99908	188.93192	-379.85492	566.12445	209.17451	-436.82690	567.04376	174.54813	-481.28851	399.59802	34.24636	-456.71240	386.41171	140.27383	-429.83505	294.76077	143.42328	-442.51920	123.75552	189.24944	-478.91202	212.80768	141.45499	-440.01959	208.30095	181.15575	-492.19791	62.85601	99.89576	-473.81693	63.09709	135.90735	-544.83966	31.54870	125.47223	-375.47174	26.15855	216.80931	-407.05017	25.34293	162.76424	-321.31018	28.88821	-215.32585	-451.97125	673.33252	-192.72278	-461.77997	500.74078	-186.15170	-401.41425	588.98749	-209.89102	-455.00705	587.16675	-173.76741	-447.52713	405.94247	-32.13546	-449.03900	398.75632	-128.90100	-425.53439	298.66092	-152.31674	-447.13470	130.14854	-193.93959	-467.07266	224.47583	-139.48898	-439.49213	212.24049	-188.59769	-503.00528	64.07100	-111.93237	-474.48532	65.30531	-145.64618	-541.23822	41.21891	-140.43727	-374.35132	31.95104	-224.26358	-420.27814	21.38004	-172.05728	-320.71219	26.28901 
